<svg fill="none" height="20" viewBox="0 0 20 20" width="20" xmlns="http://www.w3.org/2000/svg">
    <path clip-rule="evenodd" d="M12.1808 16.2932C13.055 15.0448 13.9641 13.209 14.1458 10.8332H16.6083C16.2891 13.3765 14.5341 15.4748 12.1808 16.2932ZM3.39079 10.8332H5.88413C6.05579 13.2182 6.95329 15.0465 7.83913 16.3007C5.47496 15.4865 3.71163 13.384 3.39079 10.8332ZM7.86496 3.69067C6.98829 4.939 6.07079 6.78067 5.88746 9.1665H3.39079C3.71246 6.6065 5.48829 4.49734 7.86496 3.69067ZM7.56579 9.1665C7.82079 6.43984 9.21579 4.5415 10.0216 3.664C10.855 4.5565 12.2283 6.43734 12.4658 9.1665H7.56579ZM7.56663 10.8332H12.4683C12.2133 13.564 10.815 15.4623 10.01 16.3398C9.13746 15.4148 7.79913 13.5598 7.56663 10.8332ZM16.6083 9.1665H14.1483C13.9775 6.79234 13.09 4.96984 12.2083 3.71734C14.5483 4.54234 16.2908 6.63317 16.6083 9.1665ZM18.3333 9.99984C18.3333 5.41317 14.6075 1.6815 10.0233 1.66817C10.02 1.66817 10.0166 1.66734 10.0125 1.66734C10.0091 1.66734 10.0041 1.6665 9.99996 1.6665C5.40496 1.6665 1.66663 5.40567 1.66663 9.99984C1.66663 14.5948 5.40496 18.3332 9.99996 18.3332C10.005 18.3332 10.0091 18.3323 10.0125 18.3323C10.0141 18.3323 10.015 18.3332 10.0166 18.3332C10.0191 18.3332 10.0216 18.3315 10.0233 18.3315C14.6075 18.319 18.3333 14.5865 18.3333 9.99984Z"
        fill="#2E2E2E"
        fill-rule="evenodd" />
    <mask style="mask-type:alpha" height="18" id="mask0_1215_4544"  width="18"
        x="1" y="1">
        <path clip-rule="evenodd" d="M12.1808 16.2932C13.055 15.0448 13.9641 13.209 14.1458 10.8332H16.6083C16.2891 13.3765 14.5341 15.4748 12.1808 16.2932ZM3.39079 10.8332H5.88413C6.05579 13.2182 6.95329 15.0465 7.83913 16.3007C5.47496 15.4865 3.71163 13.384 3.39079 10.8332ZM7.86496 3.69067C6.98829 4.939 6.07079 6.78067 5.88746 9.1665H3.39079C3.71246 6.6065 5.48829 4.49734 7.86496 3.69067ZM7.56579 9.1665C7.82079 6.43984 9.21579 4.5415 10.0216 3.664C10.855 4.5565 12.2283 6.43734 12.4658 9.1665H7.56579ZM7.56663 10.8332H12.4683C12.2133 13.564 10.815 15.4623 10.01 16.3398C9.13746 15.4148 7.79913 13.5598 7.56663 10.8332ZM16.6083 9.1665H14.1483C13.9775 6.79234 13.09 4.96984 12.2083 3.71734C14.5483 4.54234 16.2908 6.63317 16.6083 9.1665ZM18.3333 9.99984C18.3333 5.41317 14.6075 1.6815 10.0233 1.66817C10.02 1.66817 10.0166 1.66734 10.0125 1.66734C10.0091 1.66734 10.0041 1.6665 9.99996 1.6665C5.40496 1.6665 1.66663 5.40567 1.66663 9.99984C1.66663 14.5948 5.40496 18.3332 9.99996 18.3332C10.005 18.3332 10.0091 18.3323 10.0125 18.3323C10.0141 18.3323 10.015 18.3332 10.0166 18.3332C10.0191 18.3332 10.0216 18.3315 10.0233 18.3315C14.6075 18.319 18.3333 14.5865 18.3333 9.99984Z"
            fill="white"
            fill-rule="evenodd" />
    </mask>
    <g mask="url(#mask0_1215_4544)">
        <rect fill="#2E2E2E" height="20" width="20" />
    </g>
</svg>
